<mxfile host="app.diagrams.net" modified="2023-07-26T09:15:32.000Z" agent="Mozilla/5.0 (X11; Linux x86_64; rv:109.0) Gecko/20100101 Firefox/115.0" version="21.6.5" etag="LbT76wKoHZDh27yIAKbC" type="github">
  <diagram name="Page-1" id="4h-6bWTgN7_MG6GQKY2A">
    <mxGraphModel>
      <root>
        <mxCell id="0" />
        <mxCell id="1" parent="0" />
      </root>
    </mxGraphModel>
  </diagram>
</mxfile>
